<svg xmlns="http://www.w3.org/2000/svg" xmlns:xlink="http://www.w3.org/1999/xlink" viewBox="0 0 60 75" version="1.1" x="0px" y="0px"><title>001-North Point Arrow</title><desc>Created with Sketch.</desc><g stroke="none" stroke-width="1" fill="none" fill-rule="evenodd"><g transform="translate(1.000000, 1.000000)" stroke="white" stroke-width="2"><path d="M0,29 L58,29" stroke-linecap="round"/><path d="M29,0 L29,58" stroke-linecap="round"/><path d="M0,29 L22,22" stroke-linecap="round"/><path d="M0,29 L22,36" stroke-linecap="round"/><path d="M29,58 L22,36" stroke-linecap="round"/><path d="M36,36 L29,58" stroke-linecap="round"/><path d="M36,22 L58,29" stroke-linecap="round"/><path d="M36,36 L58,29" stroke-linecap="round"/><path d="M29,0 L22,22" stroke-linecap="round"/><path d="M36,22 L29,0" stroke-linecap="round"/><path d="M29,29 L46,12" stroke-linecap="round"/><path d="M42,23 L47,11" stroke-linecap="round"/><path d="M34,16 L47,11"/><path d="M29,29 L13,13" stroke-linecap="round"/><path d="M24,16 L11,11"/><path d="M16,23 L11,11" stroke-linecap="round"/><path d="M29,29 L46,46" stroke-linecap="round"/><path d="M42,35 L47,47" stroke-linecap="round"/><path d="M34,42 L47,47"/><path d="M29,29 L13,45" stroke-linecap="round"/><path d="M24,42 L11,47"/><path d="M16,35 L11,47" stroke-linecap="round"/></g></g></svg>
